<svg xmlns="http://www.w3.org/2000/svg" viewBox="0 0 100 100">
  <!-- Fondo circular azul -->
  <circle cx="50" cy="50" r="48" fill="#0A2463"/>

  <!-- Cinta métrica estilizada -->
  <g transform="translate(50, 50)">
    <!-- Cinta curvada -->
    <path d="M -25 -10 Q -20 -15, -10 -18 Q 0 -20, 10 -18 Q 20 -15, 25 -10 L 23 0 Q 18 -5, 8 -7 Q 0 -8, -8 -7 Q -18 -5, -23 0 Z"
          fill="#FFFFFF" opacity="0.95"/>

    <!-- Líneas de medición en la cinta -->
    <line x1="-20" y1="-10" x2="-20" y2="-2" stroke="#0A2463" stroke-width="1.5"/>
    <line x1="-14" y1="-12" x2="-14" y2="-5" stroke="#0A2463" stroke-width="1"/>
    <line x1="-8" y1="-13" x2="-8" y2="-5" stroke="#0A2463" stroke-width="1"/>
    <line x1="-2" y1="-14" x2="-2" y2="-5" stroke="#0A2463" stroke-width="1.5"/>
    <line x1="4" y1="-13" x2="4" y2="-5" stroke="#0A2463" stroke-width="1"/>
    <line x1="10" y1="-12" x2="10" y2="-5" stroke="#0A2463" stroke-width="1"/>
    <line x1="16" y1="-11" x2="16" y2="-4" stroke="#0A2463" stroke-width="1"/>
    <line x1="20" y1="-10" x2="20" y2="-2" stroke="#0A2463" stroke-width="1.5"/>

    <!-- Carcasa de la cinta métrica -->
    <rect x="-15" y="5" width="30" height="15" rx="3" fill="#FFFFFF"/>
    <rect x="-13" y="7" width="26" height="11" rx="2" fill="#FB8500"/>

    <!-- Detalles del mecanismo -->
    <circle cx="0" cy="12.5" r="3" fill="#0A2463"/>
    <circle cx="-8" cy="12.5" r="1.5" fill="#FFFFFF"/>
    <circle cx="8" cy="12.5" r="1.5" fill="#FFFFFF"/>
  </g>
</svg>
